<svg id="svg" version="1.1" xmlns="http://www.w3.org/2000/svg" xmlns:xlink="http://www.w3.org/1999/xlink" width="400" height="400" viewBox="0, 0, 400,400"><g id="svgg"><path id="path0" d="M156.000 89.310 C 150.902 91.055,150.386 91.517,122.268 119.550 C 95.458 146.279,92.574 149.395,90.860 153.491 C 89.191 157.481,89.162 158.950,89.290 233.200 C 89.426 312.133,89.221 306.421,92.025 309.225 C 94.568 311.768,90.146 311.639,170.409 311.514 L 243.817 311.400 246.534 310.062 C 250.695 308.014,306.660 252.122,308.681 247.998 C 310.451 244.383,310.444 244.560,310.319 208.171 L 310.200 173.341 309.071 171.635 C 308.323 170.504,307.311 169.638,306.071 169.065 L 304.200 168.200 260.200 168.080 C 207.372 167.936,210.066 167.651,208.842 173.520 C 208.357 175.844,208.293 205.353,208.741 219.672 C 209.125 231.949,208.857 231.734,224.000 231.936 C 238.745 232.133,238.639 232.170,245.777 224.226 C 247.964 221.792,251.222 218.180,253.017 216.200 C 259.928 208.579,269.007 198.581,269.394 198.164 C 269.617 197.925,273.017 194.192,276.949 189.870 C 285.179 180.823,286.750 179.693,290.492 180.136 C 293.437 180.485,295.914 182.136,297.178 184.592 L 298.200 186.578 298.321 211.989 C 298.469 243.100,298.346 243.882,292.905 246.488 L 291.000 247.400 227.600 247.518 C 182.630 247.601,163.735 247.509,162.600 247.198 C 157.234 245.732,154.899 243.036,153.767 237.000 C 153.081 233.343,152.948 114.497,153.625 111.120 C 155.124 103.656,158.087 101.246,166.800 100.406 C 172.983 99.809,228.439 99.866,230.554 100.471 C 233.576 101.335,235.935 103.364,243.044 111.210 C 246.925 115.495,251.653 120.690,253.550 122.755 C 255.448 124.820,257.329 126.890,257.731 127.355 C 258.427 128.159,259.039 128.833,263.775 134.015 C 264.889 135.233,266.690 137.213,267.778 138.415 C 281.382 153.440,278.734 152.098,294.430 151.928 L 306.200 151.800 307.683 150.800 C 310.544 148.870,310.436 150.150,310.312 119.729 C 310.185 88.782,310.462 91.175,306.792 89.300 L 305.030 88.400 231.815 88.410 L 158.600 88.421 156.000 89.310 " stroke="none" fill="#fafafa" fill-rule="evenodd"></path><path id="path1" d="M0.000 200.000 L 0.000 400.000 200.000 400.000 L 400.000 400.000 400.000 200.000 L 400.000 0.000 200.000 0.000 L 0.000 0.000 0.000 200.000 M306.792 89.300 C 310.462 91.175,310.185 88.782,310.312 119.729 C 310.436 150.150,310.544 148.870,307.683 150.800 L 306.200 151.800 294.430 151.928 C 278.734 152.098,281.382 153.440,267.778 138.415 C 266.690 137.213,264.889 135.233,263.775 134.015 C 259.039 128.833,258.427 128.159,257.731 127.355 C 257.329 126.890,255.448 124.820,253.550 122.755 C 251.653 120.690,246.925 115.495,243.044 111.210 C 235.935 103.364,233.576 101.335,230.554 100.471 C 228.439 99.866,172.983 99.809,166.800 100.406 C 158.087 101.246,155.124 103.656,153.625 111.120 C 152.948 114.497,153.081 233.343,153.767 237.000 C 154.899 243.036,157.234 245.732,162.600 247.198 C 163.735 247.509,182.630 247.601,227.600 247.518 L 291.000 247.400 292.905 246.488 C 298.346 243.882,298.469 243.100,298.321 211.989 L 298.200 186.578 297.178 184.592 C 295.914 182.136,293.437 180.485,290.492 180.136 C 286.750 179.693,285.179 180.823,276.949 189.870 C 273.017 194.192,269.617 197.925,269.394 198.164 C 269.007 198.581,259.928 208.579,253.017 216.200 C 251.222 218.180,247.964 221.792,245.777 224.226 C 238.639 232.170,238.745 232.133,224.000 231.936 C 208.857 231.734,209.125 231.949,208.741 219.672 C 208.293 205.353,208.357 175.844,208.842 173.520 C 210.066 167.651,207.372 167.936,260.200 168.080 L 304.200 168.200 306.071 169.065 C 307.311 169.638,308.323 170.504,309.071 171.635 L 310.200 173.341 310.319 208.171 C 310.444 244.560,310.451 244.383,308.681 247.998 C 306.660 252.122,250.695 308.014,246.534 310.062 L 243.817 311.400 170.409 311.514 C 90.146 311.639,94.568 311.768,92.025 309.225 C 89.221 306.421,89.426 312.133,89.290 233.200 C 89.162 158.950,89.191 157.481,90.860 153.491 C 92.574 149.395,95.458 146.279,122.268 119.550 C 150.386 91.517,150.902 91.055,156.000 89.310 L 158.600 88.421 231.815 88.410 L 305.030 88.400 306.792 89.300 " stroke="none" fill="#131423" fill-rule="evenodd"></path></g></svg>